<?xml version="1.0" encoding="UTF-8" standalone="no"?>
<!DOCTYPE svg PUBLIC "-//W3C//DTD SVG 1.1//EN"
 "http://www.w3.org/Graphics/SVG/1.1/DTD/svg11.dtd">
<!-- Generated by graphviz version 2.47.0 (20210316.0004)
 -->
<!-- Title: dependencies Pages: 1 -->
<svg width="504pt" height="211pt"
 viewBox="0.00 0.00 504.00 211.00" xmlns="http://www.w3.org/2000/svg" xmlns:xlink="http://www.w3.org/1999/xlink">
<g id="graph0" class="graph" transform="scale(1 1) rotate(0) translate(4 207)">
<title>dependencies</title>
<polygon fill="white" stroke="transparent" points="-4,4 -4,-207 500,-207 500,4 -4,4"/>
<text text-anchor="start" x="227.01" y="-42.4" font-family="Times-12" font-weight="bold" font-size="14.00">Legend</text>
<polygon fill="#ffffb3" stroke="transparent" points="14,-10 14,-30 34,-30 34,-10 14,-10"/>
<text text-anchor="start" x="37.63" y="-15.4" font-family="Times-12" font-size="14.00"> &#160;Declarations</text>
<polygon fill="#8dd3c7" stroke="transparent" points="127,-10 127,-30 147,-30 147,-10 127,-10"/>
<text text-anchor="start" x="150.73" y="-15.4" font-family="Times-12" font-size="14.00"> &#160;Module</text>
<polygon fill="#80b1d3" stroke="transparent" points="213,-10 213,-30 233,-30 233,-10 213,-10"/>
<text text-anchor="start" x="236.78" y="-15.4" font-family="Times-12" font-size="14.00"> &#160;Bootstrap</text>
<polygon fill="#fdb462" stroke="transparent" points="310,-10 310,-30 330,-30 330,-10 310,-10"/>
<text text-anchor="start" x="333.67" y="-15.4" font-family="Times-12" font-size="14.00"> &#160;Providers</text>
<polygon fill="#fb8072" stroke="transparent" points="406,-10 406,-30 426,-30 426,-10 406,-10"/>
<text text-anchor="start" x="429.73" y="-15.4" font-family="Times-12" font-size="14.00"> &#160;Exports</text>
<g id="clust1" class="cluster">
<title>cluster_CommonModule</title>
<polygon fill="none" stroke="black" stroke-dasharray="1,5" points="70,-70 70,-195 426,-195 426,-70 70,-70"/>
</g>
<g id="clust3" class="cluster">
<title>cluster_CommonModule_imports</title>
<polygon fill="none" stroke="black" points="320,-78 320,-130 418,-130 418,-78 320,-78"/>
</g>
<g id="clust6" class="cluster">
<title>cluster_CommonModule_providers</title>
<polygon fill="none" stroke="black" points="78,-78 78,-130 312,-130 312,-78 78,-78"/>
</g>
<!-- EnvModule -->
<g id="node1" class="node">
<title>EnvModule</title>
<polygon fill="#8dd3c7" stroke="black" points="410.1,-122 407.1,-126 386.1,-126 383.1,-122 327.9,-122 327.9,-86 410.1,-86 410.1,-122"/>
<text text-anchor="middle" x="369" y="-99.8" font-family="Times,serif" font-size="14.00">EnvModule</text>
</g>
<!-- CommonModule -->
<g id="node2" class="node">
<title>CommonModule</title>
<polygon fill="#8dd3c7" stroke="black" points="333.67,-187 330.67,-191 309.67,-191 306.67,-187 222.33,-187 222.33,-151 333.67,-151 333.67,-187"/>
<text text-anchor="middle" x="278" y="-164.8" font-family="Times,serif" font-size="14.00">CommonModule</text>
</g>
<!-- EnvModule&#45;&gt;CommonModule -->
<g id="edge1" class="edge">
<title>EnvModule&#45;&gt;CommonModule</title>
<path fill="none" stroke="black" d="M327.86,-104C320.86,-104 315.79,-104 315.79,-104 315.79,-104 315.79,-140.89 315.79,-140.89"/>
<polygon fill="black" stroke="black" points="312.29,-140.89 315.79,-150.89 319.29,-140.89 312.29,-140.89"/>
</g>
<!-- DataResponseInterceptor -->
<g id="node3" class="node">
<title>DataResponseInterceptor</title>
<ellipse fill="#fdb462" stroke="black" cx="195" cy="-104" rx="108.77" ry="18"/>
<text text-anchor="middle" x="195" y="-99.8" font-family="Times,serif" font-size="14.00">DataResponseInterceptor</text>
</g>
<!-- DataResponseInterceptor&#45;&gt;CommonModule -->
<g id="edge2" class="edge">
<title>DataResponseInterceptor&#45;&gt;CommonModule</title>
<path fill="none" stroke="black" d="M262.9,-118.1C262.9,-118.1 262.9,-140.72 262.9,-140.72"/>
<polygon fill="black" stroke="black" points="259.4,-140.72 262.9,-150.72 266.4,-140.72 259.4,-140.72"/>
</g>
</g>
</svg>
