<?xml version="1.0" encoding="UTF-8" standalone="no"?>
<!DOCTYPE svg PUBLIC "-//W3C//DTD SVG 1.1//EN"
 "http://www.w3.org/Graphics/SVG/1.1/DTD/svg11.dtd">
<!-- Generated by graphviz version 2.47.0 (20210316.0004)
 -->
<!-- Title: dependencies Pages: 1 -->
<svg width="925pt" height="211pt"
 viewBox="0.00 0.00 925.00 211.00" xmlns="http://www.w3.org/2000/svg" xmlns:xlink="http://www.w3.org/1999/xlink">
<g id="graph0" class="graph" transform="scale(1 1) rotate(0) translate(4 207)">
<title>dependencies</title>
<polygon fill="white" stroke="transparent" points="-4,4 -4,-207 921,-207 921,4 -4,4"/>
<text text-anchor="start" x="437.51" y="-42.4" font-family="Times-12" font-weight="bold" font-size="14.00">Legend</text>
<polygon fill="#ffffb3" stroke="transparent" points="224.5,-10 224.5,-30 244.5,-30 244.5,-10 224.5,-10"/>
<text text-anchor="start" x="248.13" y="-15.4" font-family="Times-12" font-size="14.00"> &#160;Declarations</text>
<polygon fill="#8dd3c7" stroke="transparent" points="337.5,-10 337.5,-30 357.5,-30 357.5,-10 337.5,-10"/>
<text text-anchor="start" x="361.23" y="-15.4" font-family="Times-12" font-size="14.00"> &#160;Module</text>
<polygon fill="#80b1d3" stroke="transparent" points="423.5,-10 423.5,-30 443.5,-30 443.5,-10 423.5,-10"/>
<text text-anchor="start" x="447.28" y="-15.4" font-family="Times-12" font-size="14.00"> &#160;Bootstrap</text>
<polygon fill="#fdb462" stroke="transparent" points="520.5,-10 520.5,-30 540.5,-30 540.5,-10 520.5,-10"/>
<text text-anchor="start" x="544.17" y="-15.4" font-family="Times-12" font-size="14.00"> &#160;Providers</text>
<polygon fill="#fb8072" stroke="transparent" points="616.5,-10 616.5,-30 636.5,-30 636.5,-10 616.5,-10"/>
<text text-anchor="start" x="640.23" y="-15.4" font-family="Times-12" font-size="14.00"> &#160;Exports</text>
<g id="clust1" class="cluster">
<title>cluster_AuthModule</title>
<polygon fill="none" stroke="black" stroke-dasharray="1,5" points="8,-70 8,-195 909,-195 909,-70 8,-70"/>
</g>
<g id="clust6" class="cluster">
<title>cluster_AuthModule_providers</title>
<polygon fill="none" stroke="black" points="16,-78 16,-130 901,-130 901,-78 16,-78"/>
</g>
<!-- AuthService -->
<g id="node1" class="node">
<title>AuthService</title>
<ellipse fill="#fdb462" stroke="black" cx="834" cy="-104" rx="59.11" ry="18"/>
<text text-anchor="middle" x="834" y="-99.8" font-family="Times,serif" font-size="14.00">AuthService</text>
</g>
<!-- AuthModule -->
<g id="node7" class="node">
<title>AuthModule</title>
<polygon fill="#8dd3c7" stroke="black" points="501.55,-187 498.55,-191 477.55,-191 474.55,-187 414.45,-187 414.45,-151 501.55,-151 501.55,-187"/>
<text text-anchor="middle" x="458" y="-164.8" font-family="Times,serif" font-size="14.00">AuthModule</text>
</g>
<!-- AuthService&#45;&gt;AuthModule -->
<g id="edge1" class="edge">
<title>AuthService&#45;&gt;AuthModule</title>
<path fill="none" stroke="black" d="M834,-122.28C834,-143.32 834,-175 834,-175 834,-175 511.87,-175 511.87,-175"/>
<polygon fill="black" stroke="black" points="511.87,-171.5 501.87,-175 511.87,-178.5 511.87,-171.5"/>
</g>
<!-- BcryptProvider -->
<g id="node2" class="node">
<title>BcryptProvider</title>
<ellipse fill="#fdb462" stroke="black" cx="686" cy="-104" rx="70.65" ry="18"/>
<text text-anchor="middle" x="686" y="-99.8" font-family="Times,serif" font-size="14.00">BcryptProvider</text>
</g>
<!-- BcryptProvider&#45;&gt;AuthModule -->
<g id="edge2" class="edge">
<title>BcryptProvider&#45;&gt;AuthModule</title>
<path fill="none" stroke="black" d="M686,-122.02C686,-139.37 686,-163 686,-163 686,-163 511.69,-163 511.69,-163"/>
<polygon fill="black" stroke="black" points="511.69,-159.5 501.69,-163 511.69,-166.5 511.69,-159.5"/>
</g>
<!-- JwtAuthGuard -->
<g id="node3" class="node">
<title>JwtAuthGuard</title>
<ellipse fill="#fdb462" stroke="black" cx="530" cy="-104" rx="67.78" ry="18"/>
<text text-anchor="middle" x="530" y="-99.8" font-family="Times,serif" font-size="14.00">JwtAuthGuard</text>
</g>
<!-- JwtAuthGuard&#45;&gt;AuthModule -->
<g id="edge3" class="edge">
<title>JwtAuthGuard&#45;&gt;AuthModule</title>
<path fill="none" stroke="black" d="M481.94,-116.84C481.94,-116.84 481.94,-140.52 481.94,-140.52"/>
<polygon fill="black" stroke="black" points="478.44,-140.52 481.94,-150.52 485.44,-140.52 478.44,-140.52"/>
</g>
<!-- JwtStrategy -->
<g id="node4" class="node">
<title>JwtStrategy</title>
<ellipse fill="#fdb462" stroke="black" cx="387" cy="-104" rx="56.76" ry="18"/>
<text text-anchor="middle" x="387" y="-99.8" font-family="Times,serif" font-size="14.00">JwtStrategy</text>
</g>
<!-- JwtStrategy&#45;&gt;AuthModule -->
<g id="edge4" class="edge">
<title>JwtStrategy&#45;&gt;AuthModule</title>
<path fill="none" stroke="black" d="M428.93,-116.23C428.93,-116.23 428.93,-140.68 428.93,-140.68"/>
<polygon fill="black" stroke="black" points="425.43,-140.68 428.93,-150.68 432.43,-140.68 425.43,-140.68"/>
</g>
<!-- SessionsService -->
<g id="node5" class="node">
<title>SessionsService</title>
<ellipse fill="#fdb462" stroke="black" cx="239" cy="-104" rx="73.01" ry="18"/>
<text text-anchor="middle" x="239" y="-99.8" font-family="Times,serif" font-size="14.00">SessionsService</text>
</g>
<!-- SessionsService&#45;&gt;AuthModule -->
<g id="edge5" class="edge">
<title>SessionsService&#45;&gt;AuthModule</title>
<path fill="none" stroke="black" d="M239,-122.02C239,-139.37 239,-163 239,-163 239,-163 404.21,-163 404.21,-163"/>
<polygon fill="black" stroke="black" points="404.21,-166.5 414.21,-163 404.21,-159.5 404.21,-166.5"/>
</g>
<!-- UsersService -->
<g id="node6" class="node">
<title>UsersService</title>
<ellipse fill="#fdb462" stroke="black" cx="86" cy="-104" rx="61.95" ry="18"/>
<text text-anchor="middle" x="86" y="-99.8" font-family="Times,serif" font-size="14.00">UsersService</text>
</g>
<!-- UsersService&#45;&gt;AuthModule -->
<g id="edge6" class="edge">
<title>UsersService&#45;&gt;AuthModule</title>
<path fill="none" stroke="black" d="M86,-122.28C86,-143.32 86,-175 86,-175 86,-175 404.23,-175 404.23,-175"/>
<polygon fill="black" stroke="black" points="404.23,-178.5 414.23,-175 404.23,-171.5 404.23,-178.5"/>
</g>
</g>
</svg>
