<?xml version="1.0" encoding="UTF-8" standalone="no"?>
<!DOCTYPE svg PUBLIC "-//W3C//DTD SVG 1.1//EN"
 "http://www.w3.org/Graphics/SVG/1.1/DTD/svg11.dtd">
<!-- Generated by graphviz version 2.47.0 (20210316.0004)
 -->
<!-- Title: dependencies Pages: 1 -->
<svg width="504pt" height="211pt"
 viewBox="0.00 0.00 504.00 211.00" xmlns="http://www.w3.org/2000/svg" xmlns:xlink="http://www.w3.org/1999/xlink">
<g id="graph0" class="graph" transform="scale(1 1) rotate(0) translate(4 207)">
<title>dependencies</title>
<polygon fill="white" stroke="transparent" points="-4,4 -4,-207 500,-207 500,4 -4,4"/>
<text text-anchor="start" x="227.01" y="-42.4" font-family="Times-12" font-weight="bold" font-size="14.00">Legend</text>
<polygon fill="#ffffb3" stroke="transparent" points="14,-10 14,-30 34,-30 34,-10 14,-10"/>
<text text-anchor="start" x="37.63" y="-15.4" font-family="Times-12" font-size="14.00"> &#160;Declarations</text>
<polygon fill="#8dd3c7" stroke="transparent" points="127,-10 127,-30 147,-30 147,-10 127,-10"/>
<text text-anchor="start" x="150.73" y="-15.4" font-family="Times-12" font-size="14.00"> &#160;Module</text>
<polygon fill="#80b1d3" stroke="transparent" points="213,-10 213,-30 233,-30 233,-10 213,-10"/>
<text text-anchor="start" x="236.78" y="-15.4" font-family="Times-12" font-size="14.00"> &#160;Bootstrap</text>
<polygon fill="#fdb462" stroke="transparent" points="310,-10 310,-30 330,-30 330,-10 310,-10"/>
<text text-anchor="start" x="333.67" y="-15.4" font-family="Times-12" font-size="14.00"> &#160;Providers</text>
<polygon fill="#fb8072" stroke="transparent" points="406,-10 406,-30 426,-30 426,-10 406,-10"/>
<text text-anchor="start" x="429.73" y="-15.4" font-family="Times-12" font-size="14.00"> &#160;Exports</text>
<g id="clust1" class="cluster">
<title>cluster_AppModule</title>
<polygon fill="none" stroke="black" stroke-dasharray="1,5" points="49.5,-70 49.5,-195 446.5,-195 446.5,-70 49.5,-70"/>
</g>
<g id="clust3" class="cluster">
<title>cluster_AppModule_imports</title>
<polygon fill="none" stroke="black" points="57.5,-78 57.5,-130 438.5,-130 438.5,-78 57.5,-78"/>
</g>
<!-- CoreModule -->
<g id="node1" class="node">
<title>CoreModule</title>
<polygon fill="#8dd3c7" stroke="black" points="430.76,-122 427.76,-126 406.76,-126 403.76,-122 344.24,-122 344.24,-86 430.76,-86 430.76,-122"/>
<text text-anchor="middle" x="387.5" y="-99.8" font-family="Times,serif" font-size="14.00">CoreModule</text>
</g>
<!-- AppModule -->
<g id="node4" class="node">
<title>AppModule</title>
<polygon fill="#8dd3c7" stroke="black" points="314.16,-187 311.16,-191 290.16,-191 287.16,-187 230.84,-187 230.84,-151 314.16,-151 314.16,-187"/>
<text text-anchor="middle" x="272.5" y="-164.8" font-family="Times,serif" font-size="14.00">AppModule</text>
</g>
<!-- CoreModule&#45;&gt;AppModule -->
<g id="edge1" class="edge">
<title>CoreModule&#45;&gt;AppModule</title>
<path fill="none" stroke="black" d="M387.5,-122.11C387.5,-141.34 387.5,-169 387.5,-169 387.5,-169 324.34,-169 324.34,-169"/>
<polygon fill="black" stroke="black" points="324.34,-165.5 314.34,-169 324.34,-172.5 324.34,-165.5"/>
</g>
<!-- FeaturesModule -->
<g id="node2" class="node">
<title>FeaturesModule</title>
<polygon fill="#8dd3c7" stroke="black" points="325.97,-122 322.97,-126 301.97,-126 298.97,-122 219.03,-122 219.03,-86 325.97,-86 325.97,-122"/>
<text text-anchor="middle" x="272.5" y="-99.8" font-family="Times,serif" font-size="14.00">FeaturesModule</text>
</g>
<!-- FeaturesModule&#45;&gt;AppModule -->
<g id="edge2" class="edge">
<title>FeaturesModule&#45;&gt;AppModule</title>
<path fill="none" stroke="black" d="M272.5,-122.11C272.5,-122.11 272.5,-140.99 272.5,-140.99"/>
<polygon fill="black" stroke="black" points="269,-140.99 272.5,-150.99 276,-140.99 269,-140.99"/>
</g>
<!-- InfrastructureModule -->
<g id="node3" class="node">
<title>InfrastructureModule</title>
<polygon fill="#8dd3c7" stroke="black" points="201.22,-122 198.22,-126 177.22,-126 174.22,-122 65.78,-122 65.78,-86 201.22,-86 201.22,-122"/>
<text text-anchor="middle" x="133.5" y="-99.8" font-family="Times,serif" font-size="14.00">InfrastructureModule</text>
</g>
<!-- InfrastructureModule&#45;&gt;AppModule -->
<g id="edge3" class="edge">
<title>InfrastructureModule&#45;&gt;AppModule</title>
<path fill="none" stroke="black" d="M133.5,-122.11C133.5,-141.34 133.5,-169 133.5,-169 133.5,-169 220.8,-169 220.8,-169"/>
<polygon fill="black" stroke="black" points="220.8,-172.5 230.8,-169 220.8,-165.5 220.8,-172.5"/>
</g>
</g>
</svg>
