<?xml version="1.0" encoding="UTF-8" standalone="no"?>
<!DOCTYPE svg PUBLIC "-//W3C//DTD SVG 1.1//EN"
 "http://www.w3.org/Graphics/SVG/1.1/DTD/svg11.dtd">
<!-- Generated by graphviz version 2.47.0 (20210316.0004)
 -->
<!-- Title: dependencies Pages: 1 -->
<svg width="504pt" height="211pt"
 viewBox="0.00 0.00 504.00 211.00" xmlns="http://www.w3.org/2000/svg" xmlns:xlink="http://www.w3.org/1999/xlink">
<g id="graph0" class="graph" transform="scale(1 1) rotate(0) translate(4 207)">
<title>dependencies</title>
<polygon fill="white" stroke="transparent" points="-4,4 -4,-207 500,-207 500,4 -4,4"/>
<text text-anchor="start" x="227.01" y="-42.4" font-family="Times-12" font-weight="bold" font-size="14.00">Legend</text>
<polygon fill="#ffffb3" stroke="transparent" points="14,-10 14,-30 34,-30 34,-10 14,-10"/>
<text text-anchor="start" x="37.63" y="-15.4" font-family="Times-12" font-size="14.00"> &#160;Declarations</text>
<polygon fill="#8dd3c7" stroke="transparent" points="127,-10 127,-30 147,-30 147,-10 127,-10"/>
<text text-anchor="start" x="150.73" y="-15.4" font-family="Times-12" font-size="14.00"> &#160;Module</text>
<polygon fill="#80b1d3" stroke="transparent" points="213,-10 213,-30 233,-30 233,-10 213,-10"/>
<text text-anchor="start" x="236.78" y="-15.4" font-family="Times-12" font-size="14.00"> &#160;Bootstrap</text>
<polygon fill="#fdb462" stroke="transparent" points="310,-10 310,-30 330,-30 330,-10 310,-10"/>
<text text-anchor="start" x="333.67" y="-15.4" font-family="Times-12" font-size="14.00"> &#160;Providers</text>
<polygon fill="#fb8072" stroke="transparent" points="406,-10 406,-30 426,-30 426,-10 406,-10"/>
<text text-anchor="start" x="429.73" y="-15.4" font-family="Times-12" font-size="14.00"> &#160;Exports</text>
<g id="clust1" class="cluster">
<title>cluster_FeaturesModule</title>
<polygon fill="none" stroke="black" stroke-dasharray="1,5" points="70,-70 70,-195 426,-195 426,-70 70,-70"/>
</g>
<g id="clust3" class="cluster">
<title>cluster_FeaturesModule_imports</title>
<polygon fill="none" stroke="black" points="78,-78 78,-130 418,-130 418,-78 78,-78"/>
</g>
<!-- AuthModule -->
<g id="node1" class="node">
<title>AuthModule</title>
<polygon fill="#8dd3c7" stroke="black" points="409.55,-122 406.55,-126 385.55,-126 382.55,-122 322.45,-122 322.45,-86 409.55,-86 409.55,-122"/>
<text text-anchor="middle" x="366" y="-99.8" font-family="Times,serif" font-size="14.00">AuthModule</text>
</g>
<!-- FeaturesModule -->
<g id="node4" class="node">
<title>FeaturesModule</title>
<polygon fill="#8dd3c7" stroke="black" points="303.47,-187 300.47,-191 279.47,-191 276.47,-187 196.53,-187 196.53,-151 303.47,-151 303.47,-187"/>
<text text-anchor="middle" x="250" y="-164.8" font-family="Times,serif" font-size="14.00">FeaturesModule</text>
</g>
<!-- AuthModule&#45;&gt;FeaturesModule -->
<g id="edge1" class="edge">
<title>AuthModule&#45;&gt;FeaturesModule</title>
<path fill="none" stroke="black" d="M366,-122.11C366,-141.34 366,-169 366,-169 366,-169 313.59,-169 313.59,-169"/>
<polygon fill="black" stroke="black" points="313.59,-165.5 303.59,-169 313.59,-172.5 313.59,-165.5"/>
</g>
<!-- SessionsModule -->
<g id="node2" class="node">
<title>SessionsModule</title>
<polygon fill="#8dd3c7" stroke="black" points="303.77,-122 300.77,-126 279.77,-126 276.77,-122 196.23,-122 196.23,-86 303.77,-86 303.77,-122"/>
<text text-anchor="middle" x="250" y="-99.8" font-family="Times,serif" font-size="14.00">SessionsModule</text>
</g>
<!-- SessionsModule&#45;&gt;FeaturesModule -->
<g id="edge2" class="edge">
<title>SessionsModule&#45;&gt;FeaturesModule</title>
<path fill="none" stroke="black" d="M250,-122.11C250,-122.11 250,-140.99 250,-140.99"/>
<polygon fill="black" stroke="black" points="246.5,-140.99 250,-150.99 253.5,-140.99 246.5,-140.99"/>
</g>
<!-- UsersModule -->
<g id="node3" class="node">
<title>UsersModule</title>
<polygon fill="#8dd3c7" stroke="black" points="177.92,-122 174.92,-126 153.92,-126 150.92,-122 86.08,-122 86.08,-86 177.92,-86 177.92,-122"/>
<text text-anchor="middle" x="132" y="-99.8" font-family="Times,serif" font-size="14.00">UsersModule</text>
</g>
<!-- UsersModule&#45;&gt;FeaturesModule -->
<g id="edge3" class="edge">
<title>UsersModule&#45;&gt;FeaturesModule</title>
<path fill="none" stroke="black" d="M132,-122.11C132,-141.34 132,-169 132,-169 132,-169 186.52,-169 186.52,-169"/>
<polygon fill="black" stroke="black" points="186.52,-172.5 196.52,-169 186.52,-165.5 186.52,-172.5"/>
</g>
</g>
</svg>
